<?xml version="1.0" standalone="no"?><!DOCTYPE svg PUBLIC "-//W3C//DTD SVG 1.1//EN" "http://www.w3.org/Graphics/SVG/1.1/DTD/svg11.dtd"><svg t="1678701899607" class="icon" viewBox="0 0 1024 1024" version="1.1" xmlns="http://www.w3.org/2000/svg" p-id="4505" xmlns:xlink="http://www.w3.org/1999/xlink" width="200" height="200"><path d="M260.266667 810.666667V213.333333c0-23.466667 19.2-42.666667 42.666666-42.666666H405.333333c12.8 0 21.333333-8.533333 21.333334-21.333334V106.666667c0-12.8-8.533333-21.333333-21.333334-21.333334h-145.066666c-46.933333 0-85.333333 38.4-85.333334 85.333334v682.666666c0 46.933333 38.4 85.333333 85.333334 85.333334H405.333333c12.8 0 21.333333-8.533333 21.333334-21.333334v-42.666666c0-12.8-8.533333-21.333333-21.333334-21.333334h-102.4c-23.466667 0-42.666667-19.2-42.666666-42.666666zM597.333333 106.666667v42.666666c0 12.8 8.533333 21.333333 21.333334 21.333334h110.933333c23.466667 0 42.666667 19.2 42.666667 42.666666v597.333334c0 23.466667-19.2 42.666667-42.666667 42.666666H618.666667c-12.8 0-21.333333 8.533333-21.333334 21.333334v42.666666c0 12.8 8.533333 21.333333 21.333334 21.333334h153.6c46.933333 0 85.333333-38.4 85.333333-85.333334V170.666667c0-46.933333-38.4-85.333333-85.333333-85.333334H618.666667c-12.8 0-21.333333 8.533333-21.333334 21.333334z" fill="#ffffff" p-id="4506"></path></svg>